<?xml version="1.0" encoding="UTF-8" standalone="no"?>
<!-- Created with Inkscape (http://www.inkscape.org/) -->

<svg
   width="512"
   height="512"
   viewBox="0 0 512 512"
   version="1.1"
   id="svg1"
   inkscape:version="1.3 (0e150ed6c4, 2023-07-21)"
   sodipodi:docname="ss_sng-handheld_card-texture-WIP.svg"
   inkscape:export-filename="ready to ship\xmas_pack-001\xmaspack-001-i026 A.png"
   inkscape:export-xdpi="96"
   inkscape:export-ydpi="96"
   xml:space="preserve"
   xmlns:inkscape="http://www.inkscape.org/namespaces/inkscape"
   xmlns:sodipodi="http://sodipodi.sourceforge.net/DTD/sodipodi-0.dtd"
   xmlns:xlink="http://www.w3.org/1999/xlink"
   xmlns="http://www.w3.org/2000/svg"
   xmlns:svg="http://www.w3.org/2000/svg"><sodipodi:namedview
     id="namedview1"
     pagecolor="#ffffff"
     bordercolor="#000000"
     borderopacity="0.25"
     inkscape:showpageshadow="2"
     inkscape:pageopacity="0.0"
     inkscape:pagecheckerboard="0"
     inkscape:deskcolor="#d1d1d1"
     inkscape:document-units="px"
     inkscape:zoom="0.29799032"
     inkscape:cx="234.90696"
     inkscape:cy="270.143"
     inkscape:window-width="1600"
     inkscape:window-height="847"
     inkscape:window-x="-8"
     inkscape:window-y="-8"
     inkscape:window-maximized="1"
     inkscape:current-layer="svg1"
     showguides="true" /><defs
     id="defs1"><linearGradient
       id="linearGradient25"
       inkscape:collect="always"><stop
         style="stop-color:#1a1a1a;stop-opacity:1"
         offset="0"
         id="stop26" /><stop
         style="stop-color:#ececec;stop-opacity:1"
         offset="0.29245284"
         id="stop29" /><stop
         style="stop-color:#fdfae7;stop-opacity:0.47843137;"
         offset="0.51851851"
         id="stop28" /><stop
         style="stop-color:#ececec;stop-opacity:1"
         offset="0.73657161"
         id="stop30" /><stop
         style="stop-color:#1a1a1a;stop-opacity:1"
         offset="1"
         id="stop27" /></linearGradient><clipPath
       clipPathUnits="userSpaceOnUse"
       id="clipPath55"><rect
         style="opacity:1;fill:#203643;fill-opacity:1;stroke:none;stroke-width:0.5;stroke-linecap:round;stroke-linejoin:round;stroke-dasharray:none;stroke-opacity:1"
         id="rect56"
         width="135.25636"
         height="144.74803"
         x="-138.81573"
         y="363.05655"
         transform="scale(-1,1)" /></clipPath><clipPath
       clipPathUnits="userSpaceOnUse"
       id="clipPath57"><rect
         style="opacity:1;fill:#cccccc;fill-opacity:1;stroke:none;stroke-width:0.492974;stroke-linecap:round;stroke-linejoin:round;stroke-dasharray:none;stroke-opacity:1"
         id="rect58"
         width="247.96999"
         height="402.20972"
         x="3.5593779"
         y="115.08656"
         transform="scale(-1,1)" /></clipPath><clipPath
       clipPathUnits="userSpaceOnUse"
       id="clipPath70"><path
         style="opacity:1;fill:#f8f5e2;fill-opacity:1;stroke:none;stroke-width:0.5;stroke-linecap:round;stroke-linejoin:round;stroke-dasharray:none;stroke-opacity:1"
         d="m 373.01967,260.59991 2.7266,-1.15356 0.20974,18.24723 1.36329,1.0487 1.57304,2.30712 0.10487,1.88764 -0.62921,1.67791 3.67042,0.94382 4.4045,2.7266 4.0899,4.29964 2.62173,6.08241 0.52435,6.08241 -1.46817,6.08242 -2.41199,3.88015 -2.93634,3.04121 -3.25094,2.41199 -6.8165,2.20225 c 0,0 -4.61425,-0.10486 -5.03372,-0.3146 -0.41948,-0.20974 -4.92885,-1.67791 -4.92885,-1.67791 l -6.08242,-4.19477 -3.46068,-4.92885 -1.88764,-6.39702 c 0,0 0.52434,-7.1311 0.94382,-7.55058 0.41948,-0.41948 3.35581,-5.87267 3.35581,-5.87267 l 2.93634,-3.35582 3.25094,-2.20225 4.61425,-1.67791 -0.83896,-2.51686 0.41948,-1.99251 2.09738,-1.57304 1.15357,-0.52434 z"
         id="path71" /></clipPath><clipPath
       clipPathUnits="userSpaceOnUse"
       id="clipPath73"><path
         id="path73"
         style="opacity:1;fill:#f4d7d7;fill-opacity:1;stroke:none;stroke-width:0.5;stroke-linecap:round;stroke-linejoin:round;stroke-dasharray:none;stroke-opacity:1"
         d="M 91.357422,84.238281 V 436.61719 H 401.61719 V 84.238281 Z M 376.45078,259.47318 c 0.0642,5.62578 1.90885,11.8444 1.97305,17.47018 -0.12387,0.66105 0.76586,0.79543 1.03125,1.31641 0.79886,1.28982 2.05344,2.47788 1.96094,4.11132 0.21445,0.50075 -0.30227,1.48882 0.34375,1.57032 1.12862,0.1845 2.14541,0.684 3.07226,1.33984 1.3705,0.957 3.00852,1.58539 4.11719,2.87305 1.22774,1.3577 2.60118,2.59991 3.73633,4.03125 0.87715,1.72392 1.5538,3.55651 2.35351,5.32226 0.78034,1.34941 0.65529,2.93417 0.83203,4.42774 0.0326,1.45437 0.47776,2.93412 0.12696,4.37109 -0.52916,2.00729 -0.89027,4.0689 -1.52735,6.04102 -0.86988,1.48694 -1.76836,2.97738 -2.74804,4.39648 -1.24842,1.19911 -2.31456,2.60481 -3.70508,3.64453 -1.35783,0.88716 -2.50352,2.1983 -4.12891,2.58789 -2.12635,0.64493 -4.21527,1.44861 -6.36523,1.99219 -1.75731,0.0592 -3.53352,-0.0573 -5.28711,-0.22656 -1.49161,-0.39061 -2.92237,-1.00774 -4.4043,-1.44727 -1.35411,-0.28287 -2.42384,-1.16437 -3.53515,-1.92773 -1.48105,-1.07852 -3.08195,-2.0127 -4.48633,-3.1836 -1.26755,-1.59058 -2.35872,-3.3289 -3.5586,-4.97656 -0.72474,-1.24402 -0.90076,-2.72558 -1.3789,-4.07422 -0.38172,-1.58765 -1.22692,-3.14255 -0.90039,-4.8164 0.25822,-2.32555 0.28792,-4.70844 0.92578,-6.97071 1.01164,-1.67525 1.99166,-3.38369 2.92383,-5.11132 0.63869,-1.47725 1.90644,-2.6141 2.9375,-3.85352 0.8671,-1.23584 2.20363,-1.95068 3.41601,-2.79102 1.23995,-1.03228 2.82747,-1.39116 4.29883,-1.96289 -0.37377,-0.86527 -0.32391,-1.83734 -0.0703,-2.72851 0.0497,-0.79745 0.46148,-1.44809 0.9082,-2.08399 0.779,-0.66092 1.62162,-1.29157 2.48242,-1.85547 -0.0964,-5.19257 -0.19266,-10.38554 -0.28906,-15.57812 2.50281,-0.47208 3.90862,-2.00962 4.94492,-1.90768 z"
         sodipodi:nodetypes="cccccccccccccccccccccccccccccccccccccc" /></clipPath><clipPath
       clipPathUnits="userSpaceOnUse"
       id="clipPath76"><path
         style="opacity:1;fill:#ff00ff;fill-opacity:1;stroke:none;stroke-width:3;stroke-linecap:round;stroke-linejoin:round;stroke-dasharray:none;stroke-opacity:1"
         d="m 318.93704,184.45452 7.1311,14.68168 13.42326,-7.55058 13.84273,-19.7154 -2.09738,-18.87646 -7.13111,-2.93633 -7.55058,2.93633 -3.77529,6.71163 -2.51686,12.5843 -5.4532,5.87268 z"
         id="path76" /></clipPath><clipPath
       clipPathUnits="userSpaceOnUse"
       id="clipPath90"><circle
         style="opacity:0.573013;fill:#5c5d58;fill-opacity:1;stroke:none;stroke-width:11.9444;stroke-linecap:round;stroke-linejoin:round;stroke-dasharray:none;stroke-opacity:1"
         id="circle90"
         cx="256"
         cy="256"
         r="198.40189" /></clipPath><clipPath
       clipPathUnits="userSpaceOnUse"
       id="clipPath91"><path
         id="path91"
         style="opacity:1;fill:#5c5d58;fill-opacity:1;stroke:none;stroke-width:96.0261;stroke-linecap:round;stroke-linejoin:round;stroke-dasharray:none;stroke-opacity:1"
         d="m -726.1131,488.82126 v 512.00004 h 512 V 488.82126 Z m 256,22.00391 A 233.99567,233.99567 0 0 1 -236.11701,744.82126 233.99567,233.99567 0 0 1 -470.1131,978.81735 233.99567,233.99567 0 0 1 -704.1092,744.82126 233.99567,233.99567 0 0 1 -470.1131,510.82517 Z" /></clipPath><clipPath
       clipPathUnits="userSpaceOnUse"
       id="clipPath92"><path
         id="path93"
         style="opacity:1;fill:#ff5555;fill-opacity:1;stroke:none;stroke-width:25.8699;stroke-linecap:round;stroke-linejoin:round;stroke-dasharray:none;stroke-opacity:1"
         d="M 0,0 V 512 H 512 V 0 Z M 256,57.47851 A 198.52113,198.52113 0 0 1 454.52148,256 198.52113,198.52113 0 0 1 256,454.52148 198.52113,198.52113 0 0 1 57.478519,256 198.52113,198.52113 0 0 1 256,57.47851 Z" /></clipPath><clipPath
       clipPathUnits="userSpaceOnUse"
       id="clipPath96"><path
         id="path97"
         style="opacity:0.534196;fill:#a02c2c;fill-opacity:1;stroke:none;stroke-width:43.1536;stroke-linecap:round;stroke-linejoin:round;stroke-dasharray:none;stroke-opacity:1"
         d="M 0,0 V 512 H 512 V 0 H 328.53711 v 97.318359 h 36.16211 c 7.5725,0 13.66797,6.097421 13.66797,13.669921 v 42.32617 c 67.33718,28.20401 115.77734,104.61393 115.77734,179.75 0,94.52142 -76.62702,171.14649 -171.14844,171.14649 -94.5214,0 -171.14648,-76.62507 -171.14648,-171.14649 0,-75.13607 48.44016,-151.54599 115.77734,-179.75 v -42.32617 c 0,-7.5725 6.09547,-13.669921 13.66797,-13.669921 h 36.16211 V 0 Z" /></clipPath><clipPath
       clipPathUnits="userSpaceOnUse"
       id="clipPath99"><path
         id="path100"
         style="opacity:0.534196;fill:#ff5555;stroke-width:5.38058;stroke-linecap:round;stroke-linejoin:round"
         d="m 102.31528,-86.277074 c -1.11164,0 -2.00637,5.955551 -2.00637,13.353364 V 67.872841 H 87.210241 c -2.74293,0 -4.95083,2.20861 -4.95083,4.95153 V 88.1558 c -24.39097,10.2161 -41.93698,37.89333 -41.93698,65.10922 0,34.23768 27.75517,61.99286 61.992849,61.99286 34.23767,0 61.99355,-27.75518 61.99355,-61.99286 0,-27.21589 -17.54602,-54.89312 -41.93698,-65.10922 V 72.824371 c 0,-2.74292 -2.20791,-4.95153 -4.95083,-4.95153 H 104.32235 V -72.92371 c 0,-7.397813 -0.89543,-13.353364 -2.00707,-13.353364 z"
         sodipodi:nodetypes="sscsscssscsscss" /></clipPath><clipPath
       clipPathUnits="userSpaceOnUse"
       id="clipPath103"><path
         id="path104"
         style="opacity:0.399261;fill:#920512;fill-opacity:1;stroke-width:5.38058;stroke-linecap:round;stroke-linejoin:round"
         d="m 840.5943,423.80661 c -1.11164,0 -2.00637,5.95555 -2.00637,13.35336 v 140.79656 h -13.09867 c -2.74293,0 -4.95083,2.20861 -4.95083,4.95153 v 15.33142 c -24.39097,10.2161 -41.93698,37.89333 -41.93698,65.10922 0,34.23768 27.75517,61.99286 61.99285,61.99286 34.23767,0 61.99355,-27.75518 61.99355,-61.99286 0,-27.21589 -17.54602,-54.89312 -41.93698,-65.10922 v -15.33142 c 0,-2.74292 -2.20791,-4.95153 -4.95083,-4.95153 H 842.60137 V 437.15997 c 0,-7.39781 -0.89543,-13.35336 -2.00707,-13.35336 z"
         sodipodi:nodetypes="sscsscssscsscss" /></clipPath><clipPath
       clipPathUnits="userSpaceOnUse"
       id="clipPath12"><path
         id="path13"
         style="opacity:1;fill:#800000;stroke:none;stroke-width:15;stroke-linecap:round;stroke-linejoin:round"
         d="m 0,0 v 133.23242 c 10.85986,7.76654 23.83552,12.02542 37.18555,12.20508 29.66989,-0.01 55.62035,-19.98036 63.22851,-48.658203 h 19.41797 c 7.60835,28.678543 33.55985,48.649193 63.23047,48.658203 29.66989,-0.01 55.62036,-19.98036 63.22852,-48.658203 h 19.41796 c 7.60816,28.677843 33.55863,48.648303 63.22852,48.658203 29.67062,-0.009 55.62212,-19.97966 63.23047,-48.658203 h 19.41797 C 419.1941,125.45714 445.14456,145.4276 474.81445,145.4375 488.16448,145.25784 501.14014,140.99896 512,133.23242 V 0 Z M 37.18555,446.5625 C 23.83552,446.74216 10.85986,451.00104 0,458.76758 V 512 h 512 v -53.23242 c -10.85986,-7.76654 -23.83552,-12.02542 -37.18555,-12.20508 -29.66989,0.01 -55.62035,19.98036 -63.22851,48.6582 h -19.41797 c -7.60835,-28.67854 -33.55985,-48.64919 -63.23047,-48.6582 -29.66989,0.01 -55.62036,19.98036 -63.22852,48.6582 h -19.41796 c -7.60816,-28.67784 -33.55863,-48.6483 -63.22852,-48.6582 -29.67062,0.009 -55.62212,19.97966 -63.23047,48.6582 H 100.41406 C 92.8059,466.54286 66.85544,446.5724 37.18555,446.5625 Z"
         sodipodi:nodetypes="cccccccccccccccccccccccccccccc" /></clipPath><clipPath
       clipPathUnits="userSpaceOnUse"
       id="clipPath96-7"><path
         id="path97-9"
         style="opacity:0.534196;fill:#a02c2c;fill-opacity:1;stroke:none;stroke-width:43.1536;stroke-linecap:round;stroke-linejoin:round;stroke-dasharray:none;stroke-opacity:1"
         d="M 0,0 V 512 H 512 V 0 H 328.53711 v 97.318359 h 36.16211 c 7.5725,0 13.66797,6.097421 13.66797,13.669921 v 42.32617 c 67.33718,28.20401 115.77734,104.61393 115.77734,179.75 0,94.52142 -76.62702,171.14649 -171.14844,171.14649 -94.5214,0 -171.14648,-76.62507 -171.14648,-171.14649 0,-75.13607 48.44016,-151.54599 115.77734,-179.75 v -42.32617 c 0,-7.5725 6.09547,-13.669921 13.66797,-13.669921 h 36.16211 V 0 Z" /></clipPath><clipPath
       clipPathUnits="userSpaceOnUse"
       id="clipPath99-2"><path
         id="path100-2"
         style="opacity:0.534196;fill:#ff5555;stroke-width:5.38058;stroke-linecap:round;stroke-linejoin:round"
         d="m 102.31528,-86.277074 c -1.11164,0 -2.00637,5.955551 -2.00637,13.353364 V 67.872841 H 87.210241 c -2.74293,0 -4.95083,2.20861 -4.95083,4.95153 V 88.1558 c -24.39097,10.2161 -41.93698,37.89333 -41.93698,65.10922 0,34.23768 27.75517,61.99286 61.992849,61.99286 34.23767,0 61.99355,-27.75518 61.99355,-61.99286 0,-27.21589 -17.54602,-54.89312 -41.93698,-65.10922 V 72.824371 c 0,-2.74292 -2.20791,-4.95153 -4.95083,-4.95153 H 104.32235 V -72.92371 c 0,-7.397813 -0.89543,-13.353364 -2.00707,-13.353364 z"
         sodipodi:nodetypes="sscsscssscsscss" /></clipPath><clipPath
       clipPathUnits="userSpaceOnUse"
       id="clipPath103-3"><path
         id="path104-7"
         style="opacity:0.399261;fill:#920512;fill-opacity:1;stroke-width:5.38058;stroke-linecap:round;stroke-linejoin:round"
         d="m 840.5943,423.80661 c -1.11164,0 -2.00637,5.95555 -2.00637,13.35336 v 140.79656 h -13.09867 c -2.74293,0 -4.95083,2.20861 -4.95083,4.95153 v 15.33142 c -24.39097,10.2161 -41.93698,37.89333 -41.93698,65.10922 0,34.23768 27.75517,61.99286 61.99285,61.99286 34.23767,0 61.99355,-27.75518 61.99355,-61.99286 0,-27.21589 -17.54602,-54.89312 -41.93698,-65.10922 v -15.33142 c 0,-2.74292 -2.20791,-4.95153 -4.95083,-4.95153 H 842.60137 V 437.15997 c 0,-7.39781 -0.89543,-13.35336 -2.00707,-13.35336 z"
         sodipodi:nodetypes="sscsscssscsscss" /></clipPath><clipPath
       clipPathUnits="userSpaceOnUse"
       id="clipPath23"><path
         id="path24"
         style="display:inline;fill:#ffffff;fill-opacity:1;stroke-width:5.38058;stroke-linecap:round;stroke-linejoin:round"
         d="m 102.31528,-86.277028 c -1.11164,0 -2.00637,5.955551 -2.00637,13.353364 V 67.872887 H 87.210239 c -2.74293,0 -4.95083,2.20861 -4.95083,4.95153 v 15.331429 c -24.39097,10.2161 -41.93698,37.893334 -41.93698,65.109224 0,34.23768 27.75517,61.99286 61.992851,61.99286 34.23767,0 61.99355,-27.75518 61.99355,-61.99286 0,-27.21589 -17.54602,-54.893124 -41.93698,-65.109224 V 72.824417 c 0,-2.74292 -2.20791,-4.95153 -4.95083,-4.95153 H 104.32235 V -72.923664 c 0,-7.397813 -0.89543,-13.353364 -2.00707,-13.353364 z"
         sodipodi:nodetypes="sscsscssscsscss" /></clipPath><linearGradient
       inkscape:collect="always"
       xlink:href="#linearGradient25"
       id="linearGradient27"
       x1="-15.572879"
       y1="431.22208"
       x2="532.43494"
       y2="431.22208"
       gradientUnits="userSpaceOnUse"
       gradientTransform="matrix(0.95548315,0,0,3.0380952,11.241609,-1080.636)" /></defs><image
     width="512"
     height="512"
     preserveAspectRatio="none"
     xlink:href="../../../../Textures/Cardboard/cardboard-seamless-texture-desaturated-white.jpg"
     id="image1"
     x="0"
     y="0"
     style="display:inline;stroke-width:1.30208"
     inkscape:label="BG Cardboard White ( keep visible )"
     sodipodi:insensitive="true" /><image
     width="512"
     height="512"
     preserveAspectRatio="none"
     xlink:href="../../../../Textures/Cardboard/cardboard-seamless-texture.jpg"
     id="image1-5"
     x="0"
     y="0"
     inkscape:label="BG Cardboard ( toggle visibility )"
     style="display:inline"
     sodipodi:insensitive="true" /><rect
     style="display:inline;opacity:0.153971;fill:url(#linearGradient27);fill-opacity:1;stroke:none;stroke-width:25.5566;stroke-linecap:round;stroke-linejoin:round"
     id="rect25"
     width="530.66309"
     height="535.25232"
     x="-12.806561"
     y="-5.0337076"
     inkscape:label="BG Shadow 1 ( toggle visibility )"
     sodipodi:insensitive="true" /><g
     inkscape:groupmode="layer"
     id="layer1"
     inkscape:label="Designs" /><path
     id="rect1"
     style="display:inline;opacity:0.5;fill:#cccccc;stroke-width:3.83111;stroke-linecap:round;stroke-linejoin:round"
     d="M -844,-844 V 1356 H 1356 V -844 Z M 0,0 H 512 V 512 H 0 Z"
     sodipodi:insensitive="true"
     inkscape:label="FRAME ( keep visible )" /></svg>
